<mxfile host="app.diagrams.net" agent="Mozilla/5.0 (Macintosh; Intel Mac OS X 10_15_7) AppleWebKit/537.36 (KHTML, like Gecko) Chrome/133.0.0.0 Safari/537.36 Edg/133.0.0.0" version="26.0.16" pages="3">
  <diagram id="q43Ghf6XaChltkZ4Siwu" name="Level1">
    <mxGraphModel dx="1379" dy="830" grid="1" gridSize="10" guides="1" tooltips="1" connect="1" arrows="1" fold="1" page="1" pageScale="1" pageWidth="850" pageHeight="1100" math="0" shadow="0">
      <root>
        <mxCell id="0" />
        <mxCell id="1" parent="0" />
        <mxCell id="VikW6qw0BHHdrQ-Nbl20-1" value="" style="rounded=0;whiteSpace=wrap;html=1;" vertex="1" parent="1">
          <mxGeometry x="120" y="170" width="590" height="370" as="geometry" />
        </mxCell>
        <mxCell id="VikW6qw0BHHdrQ-Nbl20-2" style="edgeStyle=orthogonalEdgeStyle;rounded=0;orthogonalLoop=1;jettySize=auto;html=1;entryX=0;entryY=0.5;entryDx=0;entryDy=0;" edge="1" parent="1" source="VikW6qw0BHHdrQ-Nbl20-5" target="VikW6qw0BHHdrQ-Nbl20-7">
          <mxGeometry relative="1" as="geometry" />
        </mxCell>
        <mxCell id="VikW6qw0BHHdrQ-Nbl20-3" style="edgeStyle=orthogonalEdgeStyle;rounded=0;orthogonalLoop=1;jettySize=auto;html=1;entryX=0.5;entryY=0;entryDx=0;entryDy=0;" edge="1" parent="1" source="VikW6qw0BHHdrQ-Nbl20-5" target="VikW6qw0BHHdrQ-Nbl20-13">
          <mxGeometry relative="1" as="geometry" />
        </mxCell>
        <mxCell id="VikW6qw0BHHdrQ-Nbl20-4" style="edgeStyle=orthogonalEdgeStyle;rounded=0;orthogonalLoop=1;jettySize=auto;html=1;" edge="1" parent="1" source="VikW6qw0BHHdrQ-Nbl20-5" target="VikW6qw0BHHdrQ-Nbl20-9">
          <mxGeometry relative="1" as="geometry">
            <Array as="points">
              <mxPoint x="235" y="330" />
              <mxPoint x="432" y="330" />
            </Array>
          </mxGeometry>
        </mxCell>
        <mxCell id="VikW6qw0BHHdrQ-Nbl20-5" value="Backend" style="rounded=0;whiteSpace=wrap;html=1;fillColor=#dae8fc;strokeColor=#6c8ebf;" vertex="1" parent="1">
          <mxGeometry x="150" y="210" width="170" height="100" as="geometry" />
        </mxCell>
        <mxCell id="VikW6qw0BHHdrQ-Nbl20-6" style="edgeStyle=orthogonalEdgeStyle;rounded=0;orthogonalLoop=1;jettySize=auto;html=1;exitX=0;exitY=0.75;exitDx=0;exitDy=0;entryX=1;entryY=0.75;entryDx=0;entryDy=0;" edge="1" parent="1" source="VikW6qw0BHHdrQ-Nbl20-7" target="VikW6qw0BHHdrQ-Nbl20-5">
          <mxGeometry relative="1" as="geometry" />
        </mxCell>
        <mxCell id="VikW6qw0BHHdrQ-Nbl20-7" value="Frontend" style="rounded=0;whiteSpace=wrap;html=1;fillColor=#dae8fc;strokeColor=#6c8ebf;" vertex="1" parent="1">
          <mxGeometry x="410" y="210" width="160" height="100" as="geometry" />
        </mxCell>
        <mxCell id="VikW6qw0BHHdrQ-Nbl20-8" value="" style="group" vertex="1" connectable="0" parent="1">
          <mxGeometry x="347" y="360" width="170" height="140" as="geometry" />
        </mxCell>
        <mxCell id="VikW6qw0BHHdrQ-Nbl20-9" value="" style="rounded=0;whiteSpace=wrap;html=1;" vertex="1" parent="VikW6qw0BHHdrQ-Nbl20-8">
          <mxGeometry width="170" height="140" as="geometry" />
        </mxCell>
        <mxCell id="VikW6qw0BHHdrQ-Nbl20-10" value="Email Server" style="text;html=1;align=center;verticalAlign=middle;whiteSpace=wrap;rounded=0;" vertex="1" parent="VikW6qw0BHHdrQ-Nbl20-8">
          <mxGeometry width="95" height="30" as="geometry" />
        </mxCell>
        <mxCell id="VikW6qw0BHHdrQ-Nbl20-11" value="" style="shape=callout;whiteSpace=wrap;html=1;perimeter=calloutPerimeter;" vertex="1" parent="VikW6qw0BHHdrQ-Nbl20-8">
          <mxGeometry x="25" y="40" width="120" height="80" as="geometry" />
        </mxCell>
        <mxCell id="VikW6qw0BHHdrQ-Nbl20-12" value="" style="group" vertex="1" connectable="0" parent="1">
          <mxGeometry x="150" y="360" width="170" height="140" as="geometry" />
        </mxCell>
        <mxCell id="VikW6qw0BHHdrQ-Nbl20-13" value="" style="rounded=0;whiteSpace=wrap;html=1;" vertex="1" parent="VikW6qw0BHHdrQ-Nbl20-12">
          <mxGeometry width="170" height="140" as="geometry" />
        </mxCell>
        <mxCell id="VikW6qw0BHHdrQ-Nbl20-14" value="Database" style="text;html=1;align=center;verticalAlign=middle;whiteSpace=wrap;rounded=0;" vertex="1" parent="VikW6qw0BHHdrQ-Nbl20-12">
          <mxGeometry width="70" height="30" as="geometry" />
        </mxCell>
        <mxCell id="VikW6qw0BHHdrQ-Nbl20-15" value="" style="shape=cylinder3;whiteSpace=wrap;html=1;boundedLbl=1;backgroundOutline=1;size=15;" vertex="1" parent="VikW6qw0BHHdrQ-Nbl20-12">
          <mxGeometry x="60" y="36.66999999999999" width="55" height="73.33" as="geometry" />
        </mxCell>
        <mxCell id="VikW6qw0BHHdrQ-Nbl20-16" style="edgeStyle=orthogonalEdgeStyle;rounded=0;orthogonalLoop=1;jettySize=auto;html=1;exitX=0.5;exitY=1;exitDx=0;exitDy=0;entryX=0.5;entryY=0;entryDx=0;entryDy=0;" edge="1" parent="1" source="VikW6qw0BHHdrQ-Nbl20-7" target="VikW6qw0BHHdrQ-Nbl20-18">
          <mxGeometry relative="1" as="geometry">
            <mxPoint x="628.06" y="373" as="targetPoint" />
          </mxGeometry>
        </mxCell>
        <mxCell id="VikW6qw0BHHdrQ-Nbl20-17" value="Webshop" style="text;html=1;align=center;verticalAlign=middle;whiteSpace=wrap;rounded=0;" vertex="1" parent="1">
          <mxGeometry x="120" y="170" width="90" height="30" as="geometry" />
        </mxCell>
        <mxCell id="VikW6qw0BHHdrQ-Nbl20-18" value="Payment Procesor" style="rounded=0;whiteSpace=wrap;html=1;fillColor=#dae8fc;strokeColor=#6c8ebf;" vertex="1" parent="1">
          <mxGeometry x="570" y="370" width="120" height="60" as="geometry" />
        </mxCell>
      </root>
    </mxGraphModel>
  </diagram>
  <diagram name="Level2" id="90a13364-a465-7bf4-72fc-28e22215d7a0">
    <mxGraphModel dx="1452" dy="874" grid="1" gridSize="10" guides="1" tooltips="1" connect="1" arrows="1" fold="1" page="1" pageScale="1.5" pageWidth="1169" pageHeight="826" background="none" math="0" shadow="0">
      <root>
        <mxCell id="0" style=";html=1;" />
        <mxCell id="1" style=";html=1;" parent="0" />
        <mxCell id="KokeLb3hOUpSxVeDlmHB-1" value="" style="rounded=0;whiteSpace=wrap;html=1;" vertex="1" parent="1">
          <mxGeometry x="30" y="60" width="420" height="420" as="geometry" />
        </mxCell>
        <mxCell id="KokeLb3hOUpSxVeDlmHB-2" value="" style="rounded=0;whiteSpace=wrap;html=1;" vertex="1" parent="1">
          <mxGeometry x="530" y="60" width="370" height="390" as="geometry" />
        </mxCell>
        <mxCell id="KokeLb3hOUpSxVeDlmHB-3" value="" style="rounded=0;whiteSpace=wrap;html=1;" vertex="1" parent="1">
          <mxGeometry x="30" y="520" width="170" height="140" as="geometry" />
        </mxCell>
        <mxCell id="KokeLb3hOUpSxVeDlmHB-4" value="" style="rounded=0;whiteSpace=wrap;html=1;" vertex="1" parent="1">
          <mxGeometry x="530" y="530" width="370" height="150" as="geometry" />
        </mxCell>
        <mxCell id="KokeLb3hOUpSxVeDlmHB-5" value="Backend" style="text;html=1;align=center;verticalAlign=middle;whiteSpace=wrap;rounded=0;" vertex="1" parent="1">
          <mxGeometry x="30" y="60" width="60" height="30" as="geometry" />
        </mxCell>
        <mxCell id="KokeLb3hOUpSxVeDlmHB-6" value="Frontend" style="text;html=1;align=center;verticalAlign=middle;whiteSpace=wrap;rounded=0;" vertex="1" parent="1">
          <mxGeometry x="530" y="60" width="60" height="30" as="geometry" />
        </mxCell>
        <mxCell id="KokeLb3hOUpSxVeDlmHB-7" value="Database" style="text;html=1;align=center;verticalAlign=middle;whiteSpace=wrap;rounded=0;" vertex="1" parent="1">
          <mxGeometry x="30" y="520" width="70" height="30" as="geometry" />
        </mxCell>
        <mxCell id="KokeLb3hOUpSxVeDlmHB-8" value="Payment Processor" style="text;html=1;align=center;verticalAlign=middle;whiteSpace=wrap;rounded=0;" vertex="1" parent="1">
          <mxGeometry x="530" y="530" width="140" height="30" as="geometry" />
        </mxCell>
        <mxCell id="KokeLb3hOUpSxVeDlmHB-15" style="edgeStyle=orthogonalEdgeStyle;rounded=0;orthogonalLoop=1;jettySize=auto;html=1;exitX=0.5;exitY=1;exitDx=0;exitDy=0;" edge="1" parent="1" source="KokeLb3hOUpSxVeDlmHB-9" target="KokeLb3hOUpSxVeDlmHB-10">
          <mxGeometry relative="1" as="geometry" />
        </mxCell>
        <mxCell id="KokeLb3hOUpSxVeDlmHB-16" style="edgeStyle=orthogonalEdgeStyle;rounded=0;orthogonalLoop=1;jettySize=auto;html=1;" edge="1" parent="1" source="KokeLb3hOUpSxVeDlmHB-9" target="KokeLb3hOUpSxVeDlmHB-11">
          <mxGeometry relative="1" as="geometry" />
        </mxCell>
        <mxCell id="KokeLb3hOUpSxVeDlmHB-9" value="routes" style="rounded=0;whiteSpace=wrap;html=1;fillColor=#dae8fc;strokeColor=#6c8ebf;" vertex="1" parent="1">
          <mxGeometry x="170" y="180" width="120" height="60" as="geometry" />
        </mxCell>
        <mxCell id="KokeLb3hOUpSxVeDlmHB-17" style="edgeStyle=orthogonalEdgeStyle;rounded=0;orthogonalLoop=1;jettySize=auto;html=1;" edge="1" parent="1" source="KokeLb3hOUpSxVeDlmHB-10" target="KokeLb3hOUpSxVeDlmHB-3">
          <mxGeometry relative="1" as="geometry" />
        </mxCell>
        <mxCell id="KokeLb3hOUpSxVeDlmHB-57" value="Fetch and Store&amp;nbsp;" style="edgeLabel;html=1;align=center;verticalAlign=middle;resizable=0;points=[];" vertex="1" connectable="0" parent="KokeLb3hOUpSxVeDlmHB-17">
          <mxGeometry x="-0.4968" y="2" relative="1" as="geometry">
            <mxPoint as="offset" />
          </mxGeometry>
        </mxCell>
        <mxCell id="KokeLb3hOUpSxVeDlmHB-10" value="repositories" style="rounded=0;whiteSpace=wrap;html=1;fillColor=#dae8fc;strokeColor=#6c8ebf;" vertex="1" parent="1">
          <mxGeometry x="80" y="330" width="120" height="60" as="geometry" />
        </mxCell>
        <mxCell id="KokeLb3hOUpSxVeDlmHB-18" style="edgeStyle=orthogonalEdgeStyle;rounded=0;orthogonalLoop=1;jettySize=auto;html=1;" edge="1" parent="1" source="KokeLb3hOUpSxVeDlmHB-11" target="KokeLb3hOUpSxVeDlmHB-12">
          <mxGeometry relative="1" as="geometry" />
        </mxCell>
        <mxCell id="KokeLb3hOUpSxVeDlmHB-56" value="Send Emails" style="edgeLabel;html=1;align=center;verticalAlign=middle;resizable=0;points=[];" vertex="1" connectable="0" parent="KokeLb3hOUpSxVeDlmHB-18">
          <mxGeometry x="-0.5033" y="1" relative="1" as="geometry">
            <mxPoint as="offset" />
          </mxGeometry>
        </mxCell>
        <mxCell id="KokeLb3hOUpSxVeDlmHB-11" value="tasks" style="rounded=0;whiteSpace=wrap;html=1;fillColor=#dae8fc;strokeColor=#6c8ebf;" vertex="1" parent="1">
          <mxGeometry x="277" y="330" width="120" height="60" as="geometry" />
        </mxCell>
        <mxCell id="KokeLb3hOUpSxVeDlmHB-12" value="" style="rounded=0;whiteSpace=wrap;html=1;" vertex="1" parent="1">
          <mxGeometry x="275" y="520" width="170" height="140" as="geometry" />
        </mxCell>
        <mxCell id="KokeLb3hOUpSxVeDlmHB-13" value="Email Server" style="text;html=1;align=center;verticalAlign=middle;whiteSpace=wrap;rounded=0;" vertex="1" parent="1">
          <mxGeometry x="275" y="520" width="95" height="30" as="geometry" />
        </mxCell>
        <mxCell id="KokeLb3hOUpSxVeDlmHB-19" value="Stripe" style="rounded=0;whiteSpace=wrap;html=1;fillColor=#dae8fc;strokeColor=#6c8ebf;" vertex="1" parent="1">
          <mxGeometry x="560" y="590" width="120" height="60" as="geometry" />
        </mxCell>
        <mxCell id="KokeLb3hOUpSxVeDlmHB-20" value="PayPal" style="rounded=0;whiteSpace=wrap;html=1;fillColor=#dae8fc;strokeColor=#6c8ebf;" vertex="1" parent="1">
          <mxGeometry x="750" y="590" width="120" height="60" as="geometry" />
        </mxCell>
        <mxCell id="KokeLb3hOUpSxVeDlmHB-26" style="edgeStyle=orthogonalEdgeStyle;rounded=0;orthogonalLoop=1;jettySize=auto;html=1;exitX=0.5;exitY=1;exitDx=0;exitDy=0;entryX=0.5;entryY=0;entryDx=0;entryDy=0;" edge="1" parent="1" source="KokeLb3hOUpSxVeDlmHB-21" target="KokeLb3hOUpSxVeDlmHB-25">
          <mxGeometry relative="1" as="geometry" />
        </mxCell>
        <mxCell id="KokeLb3hOUpSxVeDlmHB-38" style="edgeStyle=orthogonalEdgeStyle;rounded=0;orthogonalLoop=1;jettySize=auto;html=1;entryX=1;entryY=0.5;entryDx=0;entryDy=0;" edge="1" parent="1" source="KokeLb3hOUpSxVeDlmHB-21" target="KokeLb3hOUpSxVeDlmHB-37">
          <mxGeometry relative="1" as="geometry" />
        </mxCell>
        <mxCell id="KokeLb3hOUpSxVeDlmHB-21" value="Home" style="rounded=0;whiteSpace=wrap;html=1;fillColor=#dae8fc;strokeColor=#6c8ebf;" vertex="1" parent="1">
          <mxGeometry x="570" y="110" width="120" height="60" as="geometry" />
        </mxCell>
        <mxCell id="KokeLb3hOUpSxVeDlmHB-42" style="edgeStyle=orthogonalEdgeStyle;rounded=0;orthogonalLoop=1;jettySize=auto;html=1;" edge="1" parent="1" source="KokeLb3hOUpSxVeDlmHB-22" target="KokeLb3hOUpSxVeDlmHB-33">
          <mxGeometry relative="1" as="geometry" />
        </mxCell>
        <mxCell id="KokeLb3hOUpSxVeDlmHB-50" style="edgeStyle=orthogonalEdgeStyle;rounded=0;orthogonalLoop=1;jettySize=auto;html=1;entryX=0.5;entryY=0;entryDx=0;entryDy=0;" edge="1" parent="1" source="KokeLb3hOUpSxVeDlmHB-22" target="KokeLb3hOUpSxVeDlmHB-46">
          <mxGeometry relative="1" as="geometry" />
        </mxCell>
        <mxCell id="KokeLb3hOUpSxVeDlmHB-22" value="Checkout" style="rounded=0;whiteSpace=wrap;html=1;fillColor=#dae8fc;strokeColor=#6c8ebf;" vertex="1" parent="1">
          <mxGeometry x="720" y="330" width="120" height="60" as="geometry" />
        </mxCell>
        <mxCell id="KokeLb3hOUpSxVeDlmHB-27" style="edgeStyle=orthogonalEdgeStyle;rounded=0;orthogonalLoop=1;jettySize=auto;html=1;exitX=0.5;exitY=1;exitDx=0;exitDy=0;entryX=0.5;entryY=0;entryDx=0;entryDy=0;" edge="1" parent="1" source="KokeLb3hOUpSxVeDlmHB-25" target="KokeLb3hOUpSxVeDlmHB-22">
          <mxGeometry relative="1" as="geometry" />
        </mxCell>
        <mxCell id="KokeLb3hOUpSxVeDlmHB-25" value="Cart" style="rounded=0;whiteSpace=wrap;html=1;fillColor=#dae8fc;strokeColor=#6c8ebf;" vertex="1" parent="1">
          <mxGeometry x="655" y="220" width="120" height="60" as="geometry" />
        </mxCell>
        <mxCell id="KokeLb3hOUpSxVeDlmHB-40" style="edgeStyle=orthogonalEdgeStyle;rounded=0;orthogonalLoop=1;jettySize=auto;html=1;exitX=0;exitY=0.5;exitDx=0;exitDy=0;entryX=1;entryY=0.5;entryDx=0;entryDy=0;" edge="1" parent="1" source="KokeLb3hOUpSxVeDlmHB-31" target="KokeLb3hOUpSxVeDlmHB-9">
          <mxGeometry relative="1" as="geometry">
            <Array as="points">
              <mxPoint x="340" y="125" />
              <mxPoint x="340" y="210" />
            </Array>
          </mxGeometry>
        </mxCell>
        <mxCell id="KokeLb3hOUpSxVeDlmHB-53" value="GET /products" style="edgeLabel;html=1;align=center;verticalAlign=middle;resizable=0;points=[];" vertex="1" connectable="0" parent="KokeLb3hOUpSxVeDlmHB-40">
          <mxGeometry x="-0.6356" relative="1" as="geometry">
            <mxPoint x="-9" as="offset" />
          </mxGeometry>
        </mxCell>
        <mxCell id="KokeLb3hOUpSxVeDlmHB-31" value="" style="rounded=0;whiteSpace=wrap;html=1;" vertex="1" parent="1">
          <mxGeometry x="430" y="110" width="33" height="30" as="geometry" />
        </mxCell>
        <mxCell id="KokeLb3hOUpSxVeDlmHB-44" style="edgeStyle=orthogonalEdgeStyle;rounded=0;orthogonalLoop=1;jettySize=auto;html=1;entryX=1;entryY=0.5;entryDx=0;entryDy=0;" edge="1" parent="1" source="KokeLb3hOUpSxVeDlmHB-32" target="KokeLb3hOUpSxVeDlmHB-9">
          <mxGeometry relative="1" as="geometry">
            <Array as="points">
              <mxPoint x="410" y="360" />
              <mxPoint x="410" y="210" />
            </Array>
          </mxGeometry>
        </mxCell>
        <mxCell id="KokeLb3hOUpSxVeDlmHB-54" value="POST /orders" style="edgeLabel;html=1;align=center;verticalAlign=middle;resizable=0;points=[];" vertex="1" connectable="0" parent="KokeLb3hOUpSxVeDlmHB-44">
          <mxGeometry x="-0.1793" y="1" relative="1" as="geometry">
            <mxPoint as="offset" />
          </mxGeometry>
        </mxCell>
        <mxCell id="KokeLb3hOUpSxVeDlmHB-32" value="" style="rounded=0;whiteSpace=wrap;html=1;" vertex="1" parent="1">
          <mxGeometry x="430" y="345" width="33" height="30" as="geometry" />
        </mxCell>
        <mxCell id="KokeLb3hOUpSxVeDlmHB-43" style="edgeStyle=orthogonalEdgeStyle;rounded=0;orthogonalLoop=1;jettySize=auto;html=1;entryX=1;entryY=0.5;entryDx=0;entryDy=0;" edge="1" parent="1" source="KokeLb3hOUpSxVeDlmHB-33" target="KokeLb3hOUpSxVeDlmHB-32">
          <mxGeometry relative="1" as="geometry" />
        </mxCell>
        <mxCell id="KokeLb3hOUpSxVeDlmHB-33" value="" style="rounded=0;whiteSpace=wrap;html=1;" vertex="1" parent="1">
          <mxGeometry x="520" y="345" width="33" height="30" as="geometry" />
        </mxCell>
        <mxCell id="KokeLb3hOUpSxVeDlmHB-48" style="edgeStyle=orthogonalEdgeStyle;rounded=0;orthogonalLoop=1;jettySize=auto;html=1;" edge="1" parent="1" source="KokeLb3hOUpSxVeDlmHB-34" target="KokeLb3hOUpSxVeDlmHB-20">
          <mxGeometry relative="1" as="geometry">
            <Array as="points">
              <mxPoint x="707" y="560" />
              <mxPoint x="810" y="560" />
            </Array>
          </mxGeometry>
        </mxCell>
        <mxCell id="KokeLb3hOUpSxVeDlmHB-49" style="edgeStyle=orthogonalEdgeStyle;rounded=0;orthogonalLoop=1;jettySize=auto;html=1;entryX=0.5;entryY=0;entryDx=0;entryDy=0;" edge="1" parent="1" source="KokeLb3hOUpSxVeDlmHB-34" target="KokeLb3hOUpSxVeDlmHB-19">
          <mxGeometry relative="1" as="geometry">
            <Array as="points">
              <mxPoint x="707" y="570" />
              <mxPoint x="620" y="570" />
            </Array>
          </mxGeometry>
        </mxCell>
        <mxCell id="KokeLb3hOUpSxVeDlmHB-34" value="" style="rounded=0;whiteSpace=wrap;html=1;" vertex="1" parent="1">
          <mxGeometry x="690" y="520" width="33" height="30" as="geometry" />
        </mxCell>
        <mxCell id="KokeLb3hOUpSxVeDlmHB-39" style="edgeStyle=orthogonalEdgeStyle;rounded=0;orthogonalLoop=1;jettySize=auto;html=1;exitX=0;exitY=0.5;exitDx=0;exitDy=0;entryX=1;entryY=0.5;entryDx=0;entryDy=0;" edge="1" parent="1" source="KokeLb3hOUpSxVeDlmHB-37" target="KokeLb3hOUpSxVeDlmHB-31">
          <mxGeometry relative="1" as="geometry" />
        </mxCell>
        <mxCell id="KokeLb3hOUpSxVeDlmHB-37" value="" style="rounded=0;whiteSpace=wrap;html=1;" vertex="1" parent="1">
          <mxGeometry x="510" y="125" width="33" height="30" as="geometry" />
        </mxCell>
        <mxCell id="KokeLb3hOUpSxVeDlmHB-47" style="edgeStyle=orthogonalEdgeStyle;rounded=0;orthogonalLoop=1;jettySize=auto;html=1;entryX=0.5;entryY=0;entryDx=0;entryDy=0;" edge="1" parent="1" source="KokeLb3hOUpSxVeDlmHB-46" target="KokeLb3hOUpSxVeDlmHB-34">
          <mxGeometry relative="1" as="geometry">
            <Array as="points">
              <mxPoint x="780" y="480" />
              <mxPoint x="707" y="480" />
            </Array>
          </mxGeometry>
        </mxCell>
        <mxCell id="KokeLb3hOUpSxVeDlmHB-55" value="Create Order" style="edgeLabel;html=1;align=center;verticalAlign=middle;resizable=0;points=[];" vertex="1" connectable="0" parent="KokeLb3hOUpSxVeDlmHB-47">
          <mxGeometry x="-0.2659" y="-3" relative="1" as="geometry">
            <mxPoint x="-1" y="3" as="offset" />
          </mxGeometry>
        </mxCell>
        <mxCell id="KokeLb3hOUpSxVeDlmHB-46" value="" style="rounded=0;whiteSpace=wrap;html=1;" vertex="1" parent="1">
          <mxGeometry x="763.5" y="430" width="33" height="30" as="geometry" />
        </mxCell>
        <mxCell id="KokeLb3hOUpSxVeDlmHB-51" value="" style="shape=cylinder3;whiteSpace=wrap;html=1;boundedLbl=1;backgroundOutline=1;size=15;" vertex="1" parent="1">
          <mxGeometry x="85" y="550" width="60" height="80" as="geometry" />
        </mxCell>
        <mxCell id="KokeLb3hOUpSxVeDlmHB-52" value="" style="shape=callout;whiteSpace=wrap;html=1;perimeter=calloutPerimeter;" vertex="1" parent="1">
          <mxGeometry x="300" y="560" width="120" height="80" as="geometry" />
        </mxCell>
      </root>
    </mxGraphModel>
  </diagram>
  <diagram id="gmGFBKncm73C3p_-qhqq" name="Level3">
    <mxGraphModel dx="1149" dy="692" grid="1" gridSize="10" guides="1" tooltips="1" connect="1" arrows="1" fold="1" page="1" pageScale="1" pageWidth="850" pageHeight="1100" math="0" shadow="0">
      <root>
        <mxCell id="0" />
        <mxCell id="1" parent="0" />
        <mxCell id="lACPaynnhotdBdY6b_zZ-1" value="" style="rounded=0;whiteSpace=wrap;html=1;" vertex="1" parent="1">
          <mxGeometry x="30" y="60" width="760" height="490" as="geometry" />
        </mxCell>
        <mxCell id="lACPaynnhotdBdY6b_zZ-2" value="Backend" style="text;html=1;align=center;verticalAlign=middle;whiteSpace=wrap;rounded=0;" vertex="1" parent="1">
          <mxGeometry x="30" y="60" width="60" height="30" as="geometry" />
        </mxCell>
        <mxCell id="lACPaynnhotdBdY6b_zZ-16" value="" style="rounded=0;whiteSpace=wrap;html=1;" vertex="1" parent="1">
          <mxGeometry x="70" y="120" width="270" height="190" as="geometry" />
        </mxCell>
        <mxCell id="lACPaynnhotdBdY6b_zZ-17" value="" style="rounded=0;whiteSpace=wrap;html=1;" vertex="1" parent="1">
          <mxGeometry x="425" y="120" width="335" height="390" as="geometry" />
        </mxCell>
        <mxCell id="lACPaynnhotdBdY6b_zZ-18" value="" style="rounded=0;whiteSpace=wrap;html=1;" vertex="1" parent="1">
          <mxGeometry x="70" y="350" width="270" height="190" as="geometry" />
        </mxCell>
        <mxCell id="lACPaynnhotdBdY6b_zZ-19" value="Repositories" style="text;html=1;align=center;verticalAlign=middle;whiteSpace=wrap;rounded=0;" vertex="1" parent="1">
          <mxGeometry x="70" y="120" width="80" height="30" as="geometry" />
        </mxCell>
        <mxCell id="lACPaynnhotdBdY6b_zZ-20" value="Tasks" style="text;html=1;align=center;verticalAlign=middle;whiteSpace=wrap;rounded=0;" vertex="1" parent="1">
          <mxGeometry x="70" y="350" width="80" height="30" as="geometry" />
        </mxCell>
        <mxCell id="lACPaynnhotdBdY6b_zZ-21" value="Routes" style="text;html=1;align=center;verticalAlign=middle;whiteSpace=wrap;rounded=0;" vertex="1" parent="1">
          <mxGeometry x="425" y="120" width="80" height="30" as="geometry" />
        </mxCell>
        <mxCell id="lACPaynnhotdBdY6b_zZ-22" value="Models" style="rounded=0;whiteSpace=wrap;html=1;fillColor=#dae8fc;strokeColor=#6c8ebf;" vertex="1" parent="1">
          <mxGeometry x="90" y="170" width="100" height="60" as="geometry" />
        </mxCell>
        <mxCell id="lACPaynnhotdBdY6b_zZ-23" value="PostgreSQLDBConnector" style="rounded=0;whiteSpace=wrap;html=1;fillColor=#dae8fc;strokeColor=#6c8ebf;" vertex="1" parent="1">
          <mxGeometry x="90" y="240" width="160" height="60" as="geometry" />
        </mxCell>
        <mxCell id="lACPaynnhotdBdY6b_zZ-24" value="EmailConnector" style="rounded=0;whiteSpace=wrap;html=1;fillColor=#dae8fc;strokeColor=#6c8ebf;" vertex="1" parent="1">
          <mxGeometry x="220" y="170" width="100" height="60" as="geometry" />
        </mxCell>
        <mxCell id="lACPaynnhotdBdY6b_zZ-25" value="inventory" style="rounded=0;whiteSpace=wrap;html=1;fillColor=#dae8fc;strokeColor=#6c8ebf;" vertex="1" parent="1">
          <mxGeometry x="90" y="410" width="100" height="50" as="geometry" />
        </mxCell>
        <mxCell id="lACPaynnhotdBdY6b_zZ-26" value="tracking" style="rounded=0;whiteSpace=wrap;html=1;fillColor=#dae8fc;strokeColor=#6c8ebf;" vertex="1" parent="1">
          <mxGeometry x="220" y="460" width="100" height="50" as="geometry" />
        </mxCell>
        <mxCell id="lACPaynnhotdBdY6b_zZ-27" value="Categories" style="rounded=0;whiteSpace=wrap;html=1;fillColor=#dae8fc;strokeColor=#6c8ebf;" vertex="1" parent="1">
          <mxGeometry x="460" y="170" width="100" height="60" as="geometry" />
        </mxCell>
        <mxCell id="lACPaynnhotdBdY6b_zZ-63" style="edgeStyle=orthogonalEdgeStyle;rounded=0;orthogonalLoop=1;jettySize=auto;html=1;entryX=1;entryY=0.25;entryDx=0;entryDy=0;" edge="1" parent="1" source="lACPaynnhotdBdY6b_zZ-28" target="lACPaynnhotdBdY6b_zZ-45">
          <mxGeometry relative="1" as="geometry">
            <Array as="points">
              <mxPoint x="440" y="320" />
              <mxPoint x="440" y="445" />
            </Array>
          </mxGeometry>
        </mxCell>
        <mxCell id="lACPaynnhotdBdY6b_zZ-28" value="Orders" style="rounded=0;whiteSpace=wrap;html=1;fillColor=#dae8fc;strokeColor=#6c8ebf;" vertex="1" parent="1">
          <mxGeometry x="460" y="290" width="100" height="60" as="geometry" />
        </mxCell>
        <mxCell id="lACPaynnhotdBdY6b_zZ-31" value="Products" style="rounded=0;whiteSpace=wrap;html=1;fillColor=#dae8fc;strokeColor=#6c8ebf;" vertex="1" parent="1">
          <mxGeometry x="620" y="170" width="100" height="60" as="geometry" />
        </mxCell>
        <mxCell id="lACPaynnhotdBdY6b_zZ-32" value="Stock" style="rounded=0;whiteSpace=wrap;html=1;fillColor=#dae8fc;strokeColor=#6c8ebf;" vertex="1" parent="1">
          <mxGeometry x="620" y="410" width="100" height="60" as="geometry" />
        </mxCell>
        <mxCell id="lACPaynnhotdBdY6b_zZ-33" value="Suppliers" style="rounded=0;whiteSpace=wrap;html=1;fillColor=#dae8fc;strokeColor=#6c8ebf;" vertex="1" parent="1">
          <mxGeometry x="620" y="290" width="100" height="60" as="geometry" />
        </mxCell>
        <mxCell id="lACPaynnhotdBdY6b_zZ-64" style="edgeStyle=orthogonalEdgeStyle;rounded=0;orthogonalLoop=1;jettySize=auto;html=1;entryX=1;entryY=0.25;entryDx=0;entryDy=0;" edge="1" parent="1" source="lACPaynnhotdBdY6b_zZ-36" target="lACPaynnhotdBdY6b_zZ-45">
          <mxGeometry relative="1" as="geometry">
            <Array as="points">
              <mxPoint x="450" y="445" />
              <mxPoint x="450" y="445" />
            </Array>
          </mxGeometry>
        </mxCell>
        <mxCell id="lACPaynnhotdBdY6b_zZ-36" value="Tracking" style="rounded=0;whiteSpace=wrap;html=1;fillColor=#dae8fc;strokeColor=#6c8ebf;" vertex="1" parent="1">
          <mxGeometry x="460" y="410" width="100" height="60" as="geometry" />
        </mxCell>
        <mxCell id="lACPaynnhotdBdY6b_zZ-37" value="" style="whiteSpace=wrap;html=1;aspect=fixed;" vertex="1" parent="1">
          <mxGeometry x="330" y="150" width="20" height="20" as="geometry" />
        </mxCell>
        <mxCell id="lACPaynnhotdBdY6b_zZ-38" value="" style="whiteSpace=wrap;html=1;aspect=fixed;" vertex="1" parent="1">
          <mxGeometry x="330" y="210" width="20" height="20" as="geometry" />
        </mxCell>
        <mxCell id="lACPaynnhotdBdY6b_zZ-39" value="" style="whiteSpace=wrap;html=1;aspect=fixed;" vertex="1" parent="1">
          <mxGeometry x="150" y="305" width="20" height="20" as="geometry" />
        </mxCell>
        <mxCell id="lACPaynnhotdBdY6b_zZ-40" value="" style="whiteSpace=wrap;html=1;aspect=fixed;" vertex="1" parent="1">
          <mxGeometry x="330" y="390" width="20" height="20" as="geometry" />
        </mxCell>
        <mxCell id="lACPaynnhotdBdY6b_zZ-60" style="edgeStyle=orthogonalEdgeStyle;rounded=0;orthogonalLoop=1;jettySize=auto;html=1;entryX=0.5;entryY=1;entryDx=0;entryDy=0;" edge="1" parent="1" source="lACPaynnhotdBdY6b_zZ-41" target="lACPaynnhotdBdY6b_zZ-39">
          <mxGeometry relative="1" as="geometry">
            <Array as="points">
              <mxPoint x="290" y="330" />
              <mxPoint x="160" y="330" />
            </Array>
          </mxGeometry>
        </mxCell>
        <mxCell id="lACPaynnhotdBdY6b_zZ-65" value="send email" style="edgeLabel;html=1;align=center;verticalAlign=middle;resizable=0;points=[];" vertex="1" connectable="0" parent="lACPaynnhotdBdY6b_zZ-60">
          <mxGeometry x="-0.0305" relative="1" as="geometry">
            <mxPoint as="offset" />
          </mxGeometry>
        </mxCell>
        <mxCell id="lACPaynnhotdBdY6b_zZ-41" value="" style="whiteSpace=wrap;html=1;aspect=fixed;" vertex="1" parent="1">
          <mxGeometry x="280" y="340" width="20" height="20" as="geometry" />
        </mxCell>
        <mxCell id="lACPaynnhotdBdY6b_zZ-61" style="edgeStyle=orthogonalEdgeStyle;rounded=0;orthogonalLoop=1;jettySize=auto;html=1;exitX=0;exitY=0.5;exitDx=0;exitDy=0;entryX=1;entryY=0.5;entryDx=0;entryDy=0;" edge="1" parent="1" source="lACPaynnhotdBdY6b_zZ-42" target="lACPaynnhotdBdY6b_zZ-38">
          <mxGeometry relative="1" as="geometry" />
        </mxCell>
        <mxCell id="lACPaynnhotdBdY6b_zZ-62" value="create in db" style="edgeLabel;html=1;align=center;verticalAlign=middle;resizable=0;points=[];" vertex="1" connectable="0" parent="lACPaynnhotdBdY6b_zZ-61">
          <mxGeometry x="-0.0836" y="1" relative="1" as="geometry">
            <mxPoint as="offset" />
          </mxGeometry>
        </mxCell>
        <mxCell id="lACPaynnhotdBdY6b_zZ-42" value="" style="whiteSpace=wrap;html=1;aspect=fixed;" vertex="1" parent="1">
          <mxGeometry x="415" y="330" width="20" height="20" as="geometry" />
        </mxCell>
        <mxCell id="lACPaynnhotdBdY6b_zZ-56" style="edgeStyle=orthogonalEdgeStyle;rounded=0;orthogonalLoop=1;jettySize=auto;html=1;entryX=1;entryY=0.5;entryDx=0;entryDy=0;exitX=0;exitY=0.5;exitDx=0;exitDy=0;" edge="1" parent="1" source="lACPaynnhotdBdY6b_zZ-45" target="lACPaynnhotdBdY6b_zZ-40">
          <mxGeometry relative="1" as="geometry" />
        </mxCell>
        <mxCell id="lACPaynnhotdBdY6b_zZ-57" value="schedule email" style="edgeLabel;html=1;align=center;verticalAlign=middle;resizable=0;points=[];" vertex="1" connectable="0" parent="lACPaynnhotdBdY6b_zZ-56">
          <mxGeometry x="-0.1369" y="2" relative="1" as="geometry">
            <mxPoint x="-1" y="-3" as="offset" />
          </mxGeometry>
        </mxCell>
        <mxCell id="lACPaynnhotdBdY6b_zZ-46" style="edgeStyle=orthogonalEdgeStyle;rounded=0;orthogonalLoop=1;jettySize=auto;html=1;entryX=1;entryY=0.5;entryDx=0;entryDy=0;" edge="1" parent="1" source="lACPaynnhotdBdY6b_zZ-44" target="lACPaynnhotdBdY6b_zZ-37">
          <mxGeometry relative="1" as="geometry" />
        </mxCell>
        <mxCell id="lACPaynnhotdBdY6b_zZ-47" value="get from db" style="edgeLabel;html=1;align=center;verticalAlign=middle;resizable=0;points=[];" vertex="1" connectable="0" parent="lACPaynnhotdBdY6b_zZ-46">
          <mxGeometry x="0.0211" y="1" relative="1" as="geometry">
            <mxPoint x="1" y="1" as="offset" />
          </mxGeometry>
        </mxCell>
        <mxCell id="lACPaynnhotdBdY6b_zZ-49" style="edgeStyle=orthogonalEdgeStyle;rounded=0;orthogonalLoop=1;jettySize=auto;html=1;exitX=1;exitY=0.5;exitDx=0;exitDy=0;entryX=0.5;entryY=0;entryDx=0;entryDy=0;" edge="1" parent="1" source="lACPaynnhotdBdY6b_zZ-44" target="lACPaynnhotdBdY6b_zZ-27">
          <mxGeometry relative="1" as="geometry">
            <Array as="points">
              <mxPoint x="450" y="190" />
              <mxPoint x="450" y="150" />
              <mxPoint x="510" y="150" />
            </Array>
          </mxGeometry>
        </mxCell>
        <mxCell id="lACPaynnhotdBdY6b_zZ-50" style="edgeStyle=orthogonalEdgeStyle;rounded=0;orthogonalLoop=1;jettySize=auto;html=1;entryX=0.5;entryY=0;entryDx=0;entryDy=0;" edge="1" parent="1" source="lACPaynnhotdBdY6b_zZ-44" target="lACPaynnhotdBdY6b_zZ-28">
          <mxGeometry relative="1" as="geometry">
            <Array as="points">
              <mxPoint x="450" y="190" />
              <mxPoint x="450" y="260" />
              <mxPoint x="510" y="260" />
            </Array>
          </mxGeometry>
        </mxCell>
        <mxCell id="lACPaynnhotdBdY6b_zZ-52" style="edgeStyle=orthogonalEdgeStyle;rounded=0;orthogonalLoop=1;jettySize=auto;html=1;entryX=0.5;entryY=0;entryDx=0;entryDy=0;" edge="1" parent="1" source="lACPaynnhotdBdY6b_zZ-44" target="lACPaynnhotdBdY6b_zZ-31">
          <mxGeometry relative="1" as="geometry">
            <Array as="points">
              <mxPoint x="450" y="190" />
              <mxPoint x="450" y="150" />
              <mxPoint x="670" y="150" />
            </Array>
          </mxGeometry>
        </mxCell>
        <mxCell id="lACPaynnhotdBdY6b_zZ-53" style="edgeStyle=orthogonalEdgeStyle;rounded=0;orthogonalLoop=1;jettySize=auto;html=1;" edge="1" parent="1" source="lACPaynnhotdBdY6b_zZ-44" target="lACPaynnhotdBdY6b_zZ-33">
          <mxGeometry relative="1" as="geometry">
            <Array as="points">
              <mxPoint x="450" y="190" />
              <mxPoint x="450" y="260" />
              <mxPoint x="670" y="260" />
            </Array>
          </mxGeometry>
        </mxCell>
        <mxCell id="lACPaynnhotdBdY6b_zZ-54" style="edgeStyle=orthogonalEdgeStyle;rounded=0;orthogonalLoop=1;jettySize=auto;html=1;entryX=0.5;entryY=0;entryDx=0;entryDy=0;" edge="1" parent="1" source="lACPaynnhotdBdY6b_zZ-44" target="lACPaynnhotdBdY6b_zZ-32">
          <mxGeometry relative="1" as="geometry">
            <Array as="points">
              <mxPoint x="450" y="190" />
              <mxPoint x="450" y="380" />
              <mxPoint x="670" y="380" />
            </Array>
          </mxGeometry>
        </mxCell>
        <mxCell id="lACPaynnhotdBdY6b_zZ-44" value="" style="whiteSpace=wrap;html=1;aspect=fixed;" vertex="1" parent="1">
          <mxGeometry x="415" y="180" width="20" height="20" as="geometry" />
        </mxCell>
        <mxCell id="lACPaynnhotdBdY6b_zZ-45" value="" style="whiteSpace=wrap;html=1;aspect=fixed;" vertex="1" parent="1">
          <mxGeometry x="415" y="440" width="20" height="20" as="geometry" />
        </mxCell>
      </root>
    </mxGraphModel>
  </diagram>
</mxfile>
